<?xml version="1.0" encoding="UTF-8"?>
<svg id="Camada_1" data-name="Camada 1" xmlns="http://www.w3.org/2000/svg" viewBox="330 370 790 330">
  <defs>
    <style>
      .cls-1 {
        fill: #33cfd3;
      }

      .cls-3 {
        fill: #102a43;
      }
    </style>
  </defs>
  
  <g>
    <path class="cls-3" d="M480,595.14c0-16.77-4.91-22.32-10.75-29.09-5.84-6.77-19.81-8.44-21.51-8.44h-99.21v123.05l26.92.15.15-37.22s67.68,0,76.29-.31c8.61-.31,16.72-5.47,22.56-13,6.22-8.02,5.55-18.37,5.55-35.14ZM453.69,606.45c0,7.77-6.3,14.07-14.07,14.07h-64.83v-37.38h65.29c7.52,0,13.61,6.09,13.61,13.61v9.69Z"/>
    <path class="cls-3" d="M500.15,558.11h26.4c.05,25.96-.03,49.86.07,75.83,2.39,26.03,25.73,21.53,45.26,21.84,20.93.33,34.01-1.04,38.72-6.98,1.59-2.01,4.74-9.82,5.14-16.98,1.23-21.99.03-59.26.1-73.46,1.72,0,26.7.06,26.7.06,0,0,.08,75.51-.19,82.25s-3.53,20.02-14.54,30.11c-13.84,12.69-43.41,10.68-61.77,10.54-24.04-.19-41.02-1.9-51.05-10.31-7.96-6.67-13.82-14.76-14.34-25.6-1.11-22.85-.27-57.03-.5-87.3Z"/>
    <path class="cls-3" d="M837.91,557.21c28.01.05,56.58.23,84.59.3.04,7.44-.08,25.3-.08,25.3,0,0-55.91.2-83.26.31-4.79.06-7.1.62-9.26,3.08-1.7,1.92-2.69,4.37-2.95,6.92-.46,4.66,1.03,8.11,4.03,10.99,1.4,1.35,5.76,2.07,7.8,2.03,14.5.04,29.06.03,43.57.09,16.41-.4,31.49.59,41.23,14.74,1.49,2.16,2.53,4.61,3.14,7.16,1.18,4.95,1.51,9.68,1.48,15.05-.06,11.99-3.65,23.1-12.63,30.56-1,.83-2.11,1.54-3.29,2.09-2.41,1.14-2.87,1.3-5.89,2.36-.78.3-1.56.6-2.36.91-5.47,1.64-10.99,1.5-16.64,1.48-6.15,0-12.31-.02-18.46-.02-22.59-.03-45.18-.04-67.77-.07v-26.16c29.18-.07,62.7.68,91.89.61,1.82-.02,9.37-.77,9.23-12.92-.15-12.77-9.98-12.15-10.92-12.15-9.31-.02-26.44.31-35.76.3-20.43-.66-43.53,4.4-52.99-17.48-2.38-5.51-3.05-15.84-2.94-21.81.84-16.41,4.25-21.99,16.56-29.68,6.1-3.81,14.61-4.04,21.69-4Z"/>
    <path class="cls-3" d="M662.88,557.22c8.64,0,17.99.17,26.89.17.01,2.4.29,40.3.31,45.11,0,.6,0,18.73,0,34.41,0,9.75,7.2,16.66,15.46,16.8,26.99.46,71.6.97,76.94,1,0,9.01.02,16.51.02,25.79-10.29.09-63.77.07-65.52.1-20.64.24-39.44-1.85-49.6-22.8-3.16-7.68-4.58-13.99-4.57-22.42,0-.84,0-1.69,0-2.56,0-2.79.07-65.41.09-75.6Z"/>
    <path class="cls-1" d="M1008.54,556.51c-2.61.02,26.24.13,28.19.15l-6.01,26.3h-16.3l-5.89-26.46Z"/>
    <path class="cls-3" d="M1092.95,581.51c-9.56-17.73-28.63-23.96-47.6-24.46-.06,0-6.85,25.97-6.85,25.97.17,0,.33,0,.49,0,11.93.09,23.05,1.21,29.47,12.67,3.16,8.12,2.77,16.54,2.82,25.17q.03,2.08.07,4.21c.06,11.92-1.71,22.53-13.17,28.53-7.09,2.2-13.1,2.15-20.48,2.12-1.11,0-30.45-.16-31.53-.15-11.59-.09-20.29-.52-27.38-10.92-2.18-4.92-3.4-9.36-3.41-14.74,0-.77,0-5.55,0-7.16.01-2.45,0-10.5,0-12.07,0-1.42,0-2.83,0-4.3.76-10.48,4.51-16.32,13.36-21.52,6.39-2.5,10.54-1.95,17.23-1.88l-5.46-25.92c-8.08.23-16.57,1.29-24.26,4.73-23.19,11.53-27.81,30.68-27.89,54.91,0,2.49,0,4.97-.03,7.46-.08,6.65.12,12.86,1.25,19,1.62,8.81,5.89,16.91,12.41,23.07,10.83,10.24,24.99,14.1,41.44,14.23,1.31,0,2.58-.01,3.85-.02,2.77,0,5.55,0,8.32.01,4.31-.02,8.61-.04,12.92-.02,2.84.01,5.68.02,8.51.02,1.39,0,2.74,0,4.09,0,11.02.05,20.99-1.01,31.39-4.79,21.79-10.83,25.58-34.05,25.6-56.72-.02-2.65.12-26.36-5.15-37.4Z"/>
    <g>
      <path class="cls-1" d="M721.37,509.99s-6.11,9.4-14.1,0l-18.9-65.35-9.87,20.22s-1.03,4.7-7.33,4.89c-2.56.08-7.69.07-12.91.04v39.47c0,6.02,4.88,10.9,10.9,10.9h98.87c6.02,0,10.9-4.88,10.9-10.9v-39.8h-38.56s-18.99,40.52-18.99,40.52Z"/>
      <path class="cls-1" d="M684.34,413.82c1.13-1.13,3.38-3.29,7.15-2.91,3.76.38,6.49,1.5,7.43,4.51.94,3.01,17.86,61.49,17.86,61.49,0,0,10.48-22.33,10.72-22.8.24-.47,1.88-3.15,5.5-3.2,2.26-.03,27.37.08,45.92.16v-35.3c0-6.02-4.88-10.9-10.9-10.9h-98.87c-6.02,0-10.9,4.88-10.9,10.9v35.11c4.01,0,7.57.02,7.57.02,0,0,17.39-35.95,18.52-37.08Z"/>
      <path class="cls-1" d="M645.06,450.9c-1.37.01-2.47,1.12-2.48,2.49l-.08,13.81c-.04,1.37,1.05,2.51,2.42,2.51,2.99,0,8.2.05,13.33.07v-18.92c-3.16,0-9.55,0-13.19.03Z"/>
      <path class="cls-1" d="M802.6,453.98c-.13-2.75-3.73-2.82-3.73-2.82,0,0-8.79-.04-19.95-.09v18.4h20.49s3.45.47,3.38-3.89c-.06-3.54.02-7.2-.19-11.6Z"/>
    </g>
  </g>
</svg>