<svg xmlns="http://www.w3.org/2000/svg" viewBox="636 398 172 130">
  <path fill="#33cfd3" d="M721.37,509.99s-6.11,9.4-14.1,0l-18.9-65.35-9.87,20.22s-1.03,4.7-7.33,4.89c-2.56.08-7.69.07-12.91.04v39.47c0,6.02,4.88,10.9,10.9,10.9h98.87c6.02,0,10.9-4.88,10.9-10.9v-39.8h-38.56s-18.99,40.52-18.99,40.52Z"/>
  <path fill="#33cfd3" d="M684.34,413.82c1.13-1.13,3.38-3.29,7.15-2.91,3.76.38,6.49,1.5,7.43,4.51.94,3.01,17.86,61.49,17.86,61.49,0,0,10.48-22.33,10.72-22.8.24-.47,1.88-3.15,5.5-3.2,2.26-.03,27.37.08,45.92.16v-35.3c0-6.02-4.88-10.9-10.9-10.9h-98.87c-6.02,0-10.9,4.88-10.9,10.9v35.11c4.01,0,7.57.02,7.57.02,0,0,17.39-35.95,18.52-37.08Z"/>
  <path fill="#33cfd3" d="M645.06,450.9c-1.37.01-2.47,1.12-2.48,2.49l-.08,13.81c-.04,1.37,1.05,2.51,2.42,2.51,2.99,0,8.2.05,13.33.07v-18.92c-3.16,0-9.55,0-13.19.03Z"/>
  <path fill="#33cfd3" d="M802.6,453.98c-.13-2.75-3.73-2.82-3.73-2.82,0,0-8.79-.04-19.95-.09v18.4h20.49s3.45.47,3.38-3.89c-.06-3.54.02-7.2-.19-11.6Z"/>
</svg>
